# xmcd
#
# Track frame offsets:
#	183
#	18075
#	28470
#	44698
#	64213
#	72320
#	84230
#	94735
#	106165
#	120680
#	132615
#	139668
#	152970
#	164563
#	176790
#	189390
#	201615
#	219395
#	232005
#	243210
#	258663
#	276220
#	289408
#	300650
#	316053
#
# Disc length: 4445
#
# Revision: 1
# Processed by: cddbd v1.5.1PL0 Copyright (c) Steve Scherf et al.
# Submitted via: audiograbber 1.80.04
# Normalized: r0:TDELIM( - )
#
DISCID=81115b19
DTITLE=Various Artist - Play Me The Blues - The Legendary Blues Singers 4
DYEAR=1900
DGENRE=
TTITLE0=Jimi Hendrix - Good Feeling
TTITLE1=Sly and The Family Stone - Seventh Son
TTITLE2=Rod Stewart - I Just Got Some
TTITLE3=John Mayall - Reaching For A Mountain
TTITLE4=Johnny Guitar Watson - Looking Back
TTITLE5=B.B. King - Dark Is The Night Part 1
TTITLE6=Elmore James - Can´t Stop Lovin´
TTITLE7=Howlin´ Wolf - Howlin´ For My Darling
TTITLE8=John Lee Hooker - Sugar Mama
TTITLE9=Muddy Waters - Long Distance Call
TTITLE10=Sonny Boy Williamson - I Wonder Why
TTITLE11=Howlin´ Wolf - Tail Dragger
TTITLE12=Little Walter - My Babe
TTITLE13=John Lee Hooker - Hobo Blues
TTITLE14=B.B. KIng - Ten Long Years
TTITLE15=Elmore James - The Sky Is Crying
TTITLE16=John Mayall - Mama Talk To Your Daughter
TTITLE17=Howlin´ Wolf - Killing Floor
TTITLE18=Elmore James - Shake your Moneymaker
TTITLE19=B.B. King - Walkin´ And Cryin´
TTITLE20=John Lee Hooker - You´re Leavin´ Me Baby
TTITLE21=Muddy Waters - She Moves Me
TTITLE22=Sonny Boy Wiliamson - Bring It On Home
TTITLE23=Big Joe Williams - Nobody Knows You Whne Your Down And Out
TTITLE24=Mike Bloomfield - Linda Lou
EXTD=
EXTT0=
EXTT1=
EXTT2=
EXTT3=
EXTT4=
EXTT5=
EXTT6=
EXTT7=
EXTT8=
EXTT9=
EXTT10=
EXTT11=
EXTT12=
EXTT13=
EXTT14=
EXTT15=
EXTT16=
EXTT17=
EXTT18=
EXTT19=
EXTT20=
EXTT21=
EXTT22=
EXTT23=
EXTT24=
PLAYORDER=
